<?xml version="1.0" encoding="UTF-8"?>
<svg version="1.1" xmlns="http://www.w3.org/2000/svg" width="500" height="500">
<path d="M0 0 C2.25976274 2.15746895 4.30844821 4.36648604 6 7 C6 7.66 6 8.32 6 9 C6.66 9 7.32 9 8 9 C10.84369651 16.17106077 12.11973134 22.29334703 12.1418457 30.07177734 C12.14532013 30.75230667 12.14879456 31.432836 12.15237427 32.13398743 C12.15968817 33.6022397 12.16505662 35.07050271 12.16866493 36.53876877 C12.17588268 38.86867786 12.19158744 41.19838266 12.21000671 43.52822876 C12.26223315 50.14932489 12.31043441 56.77030375 12.32592773 63.39160156 C12.33604626 67.45120847 12.36546137 71.51029145 12.40724754 75.5696907 C12.41950077 77.10930025 12.42468924 78.64898392 12.42244911 80.18864059 C12.41348427 88.35929087 12.46464494 94.95819477 17 102 C17.33699417 102.70756439 17.67398834 103.41512878 18.02119446 104.14413452 C19.3024106 106.57338601 20.53140538 106.83427476 23 108 C25.14223758 109.55942295 27.03062715 111.20966105 29 113 C29 113.66 29 114.32 29 115 C29.556875 115.226875 30.11375 115.45375 30.6875 115.6875 C33.646822 117.36711519 35.60833238 119.57731652 38 122 C41.96669149 125.70299347 45.98488176 129.34966302 50 133 C50.94488281 133.86109375 51.88976562 134.7221875 52.86328125 135.609375 C53.73339844 136.39828125 54.60351562 137.1871875 55.5 138 C56.2734375 138.70125 57.046875 139.4025 57.84375 140.125 C59.96436245 142.03000174 59.96436245 142.03000174 62.28125 143.625 C62.8484375 144.07875 63.415625 144.5325 64 145 C64 145.66 64 146.32 64 147 C64.58120605 147.259021 65.16241211 147.51804199 65.76123047 147.78491211 C68.17076788 149.09268394 69.84589109 150.54469239 71.8203125 152.44140625 C72.52027344 153.10720703 73.22023438 153.77300781 73.94140625 154.45898438 C75.02228516 155.50022461 75.02228516 155.50022461 76.125 156.5625 C77.56315539 157.94083831 79.00317056 159.31723957 80.4453125 160.69140625 C81.39688232 161.60708374 81.39688232 161.60708374 82.36767578 162.54125977 C83.95154375 164.08516321 83.95154375 164.08516321 86 165 C86 165.66 86 166.32 86 167 C86.66 167 87.32 167 88 167 C88 167.66 88 168.32 88 169 C88.54140625 169.22816406 89.0828125 169.45632813 89.640625 169.69140625 C92.73053725 171.40518209 95.12641502 173.5741913 97.75 175.9375 C98.73484375 176.81277344 99.7196875 177.68804687 100.734375 178.58984375 C103 181 103 181 103 184 C97.3128941 186.84355295 90.78657079 185.14008967 85.03295898 183.25854492 C74.22528387 179.45953524 64.15664411 174.36964257 54.12109375 168.88671875 C46.25498347 164.59556601 38.46585974 161.01419428 30 158 C29.10023438 157.65324219 28.20046875 157.30648437 27.2734375 156.94921875 C4.40576969 148.21363473 -17.3086087 145.78908959 -41 152 C-41.99386719 152.25394531 -42.98773438 152.50789062 -44.01171875 152.76953125 C-51.03235743 154.82229476 -56.89777372 158.07636143 -63.01342773 162.00244141 C-67.71502642 165 -67.71502642 165 -71 165 C-72.68783442 149.39690846 -64.90927241 134.84655301 -55.74609375 122.84765625 C-54 121 -54 121 -51.91015625 119.99609375 C-49.46535548 118.72119764 -49.18923064 117.43792281 -48 115 C-36.61283633 104.9068322 -22.57753988 100.03444606 -8 97 C-6.39898437 96.66162109 -6.39898437 96.66162109 -4.765625 96.31640625 C-2.51371782 95.85521057 -0.2611354 95.41309204 2 95 C-17.10185201 94.57340777 -33.51115238 98.02841153 -49 110 C-49.598125 110.44730469 -50.19625 110.89460938 -50.8125 111.35546875 C-63.00608625 121.07223279 -70.78336628 135.22868683 -75 150 C-75.66 150 -76.32 150 -77 150 C-81.05264941 134.59993225 -81.35957096 118.8748904 -78.25 103.25 C-78.01470581 102.05564331 -78.01470581 102.05564331 -77.7746582 100.8371582 C-75.04235542 88.37602288 -68.31267701 77.00831431 -60.55078125 67.0078125 C-58.7099395 64.62445567 -56.94026227 62.19886949 -55.1875 59.75 C-54.60355469 58.94046875 -54.01960938 58.1309375 -53.41796875 57.296875 C-52.06021727 55.09754202 -51.2326714 53.57020731 -51 51 C-53.14445983 48.43727882 -53.14445983 48.43727882 -56 46 C-56.66515625 45.11957031 -57.3303125 44.23914063 -58.015625 43.33203125 C-62.45702148 39.86146358 -66.1976497 40.63698213 -71.625 41.125 C-72.57890625 41.186875 -73.5328125 41.24875 -74.515625 41.3125 C-78.22367928 41.57363058 -81.46046801 41.820156 -85 43 C-87.33299825 43.03954234 -89.66708189 43.04401732 -92 43 C-92.50974757 37.64765052 -91.30895317 35.17973032 -88 31 C-83.07596934 25.04338701 -78.9825374 23.86646506 -71.5625 22.3125 C-62.54494064 20.15019192 -62.54494064 20.15019192 -56.4375 13.4375 C-55.61441208 11.62978355 -54.80154751 9.8173701 -54 8 C-49.95667295 2.30843772 -45.50280808 -1.05998692 -39.0625 -3.6875 C-38.06347656 -4.10386719 -37.06445312 -4.52023438 -36.03515625 -4.94921875 C-23.85100541 -9.16741254 -10.49234399 -7.54505635 0 0 Z M-33 17 C-33.33333333 19.5 -33.33333333 19.5 -33 22 C-31.10244856 24.34973818 -31.10244856 24.34973818 -27.875 24.125 C-26.92625 24.08375 -25.9775 24.0425 -25 24 C-24.32326553 20.59679066 -24.32326553 20.59679066 -24 17 C-25.82703227 14.7508092 -25.82703227 14.7508092 -28.5 14.75 C-31.17296773 14.7508092 -31.17296773 14.7508092 -33 17 Z " fill="#D7D8D9" transform="translate(231,131)"/>
<path d="M0 0 C1.01312256 0.00894287 2.02624512 0.01788574 3.07006836 0.02709961 C25.05491813 0.36749881 44.94883859 7.91893634 64.625 17.25 C72.21840687 20.81254551 79.77636058 24.17673316 87.65234375 27.07421875 C90.625 28.25 90.625 28.25 93.32421875 29.7890625 C97.93958689 31.83184082 102.51912571 32.31995258 107.5 32.9375 C108.47453125 33.06705078 109.4490625 33.19660156 110.453125 33.33007812 C112.8426664 33.64634096 115.23304077 33.95267813 117.625 34.25 C116.84593924 37.72238509 115.66964928 40.30570504 113.625 43.25 C112.965 43.25 112.305 43.25 111.625 43.25 C111.625 43.91 111.625 44.57 111.625 45.25 C109.75 47.375 109.75 47.375 107.625 49.25 C106.965 49.25 106.305 49.25 105.625 49.25 C105.625 49.91 105.625 50.57 105.625 51.25 C101.15441176 55.25 101.15441176 55.25 98.625 55.25 C98.625 55.91 98.625 56.57 98.625 57.25 C96.38156844 58.79103463 94.158299 60.19294669 91.8125 61.5625 C91.12687988 61.96621826 90.44125977 62.36993652 89.73486328 62.78588867 C65.69441193 76.74911742 38.77574054 80.74559897 11.74438477 74.03344727 C-6.05140375 69.22989273 -21.77534802 59.67412585 -34.375 46.25 C-35.703125 43.92578125 -35.703125 43.92578125 -36.375 42.25 C-37.035 42.25 -37.695 42.25 -38.375 42.25 C-39.93461657 40.13337751 -41.35663222 38.03542875 -42.75 35.8125 C-43.1526709 35.17521973 -43.5553418 34.53793945 -43.97021484 33.88134766 C-51.68301941 21.48006051 -51.68301941 21.48006051 -51.08203125 17.12890625 C-49.17440595 12.05947105 -42.84409814 9.70090178 -38.24609375 7.48046875 C-25.96874075 2.21874603 -13.30287287 -0.13362386 0 0 Z " fill="#2688C7" transform="translate(211.375,284.75)"/>
<path d="M0 0 C2.25976274 2.15746895 4.30844821 4.36648604 6 7 C6 7.66 6 8.32 6 9 C6.66 9 7.32 9 8 9 C12.8700361 20.14330295 10.32977353 29.01317997 6.08422852 39.86938477 C5.39870193 41.58330493 4.70068267 43.29221992 4 45 C3.34 45 2.68 45 2 45 C1.67 46.98 1.34 48.96 1 51 C0.34 51 -0.32 51 -1 51 C-1.15843384 51.88510254 -1.15843384 51.88510254 -1.32006836 52.78808594 C-2.09878322 55.32135583 -3.06007716 56.48200107 -4.87890625 58.390625 C-5.46679932 59.01404785 -6.05469238 59.6374707 -6.66040039 60.27978516 C-7.28809326 60.92995605 -7.91578613 61.58012695 -8.5625 62.25 C-9.19857178 62.91950684 -9.83464355 63.58901367 -10.48999023 64.27880859 C-14.92022002 68.92634485 -19.41386536 73.50620364 -24 78 C-27.66752564 81.61894914 -31.20742092 85.32768922 -34.6875 89.125 C-35.17283203 89.64964844 -35.65816406 90.17429687 -36.15820312 90.71484375 C-38.31508296 93.06509902 -40.22624681 95.33937022 -42 98 C-42.66 98 -43.32 98 -44 98 C-44.66 99.32 -45.32 100.64 -46 102 C-46.66 102 -47.32 102 -48 102 C-48.020625 103.19625 -48.04125 104.3925 -48.0625 105.625 C-48.50951159 109.17625877 -49.2604979 110.65887106 -52.0625 112.875 C-52.69285156 113.35453125 -53.32320312 113.8340625 -53.97265625 114.328125 C-64.72151441 123.19230861 -71.25890256 136.89454065 -75 150 C-75.66 150 -76.32 150 -77 150 C-81.05264941 134.59993225 -81.35957096 118.8748904 -78.25 103.25 C-78.01470581 102.05564331 -78.01470581 102.05564331 -77.7746582 100.8371582 C-75.04235542 88.37602288 -68.31267701 77.00831431 -60.55078125 67.0078125 C-58.7099395 64.62445567 -56.94026227 62.19886949 -55.1875 59.75 C-54.60355469 58.94046875 -54.01960938 58.1309375 -53.41796875 57.296875 C-52.06021727 55.09754202 -51.2326714 53.57020731 -51 51 C-53.14445983 48.43727882 -53.14445983 48.43727882 -56 46 C-56.66515625 45.11957031 -57.3303125 44.23914063 -58.015625 43.33203125 C-62.45702148 39.86146358 -66.1976497 40.63698213 -71.625 41.125 C-72.57890625 41.186875 -73.5328125 41.24875 -74.515625 41.3125 C-78.22367928 41.57363058 -81.46046801 41.820156 -85 43 C-87.33299825 43.03954234 -89.66708189 43.04401732 -92 43 C-92.50974757 37.64765052 -91.30895317 35.17973032 -88 31 C-83.07596934 25.04338701 -78.9825374 23.86646506 -71.5625 22.3125 C-62.54494064 20.15019192 -62.54494064 20.15019192 -56.4375 13.4375 C-55.61441208 11.62978355 -54.80154751 9.8173701 -54 8 C-49.95667295 2.30843772 -45.50280808 -1.05998692 -39.0625 -3.6875 C-38.06347656 -4.10386719 -37.06445312 -4.52023438 -36.03515625 -4.94921875 C-23.85100541 -9.16741254 -10.49234399 -7.54505635 0 0 Z M-33 17 C-33.33333333 19.5 -33.33333333 19.5 -33 22 C-31.10244856 24.34973818 -31.10244856 24.34973818 -27.875 24.125 C-26.92625 24.08375 -25.9775 24.0425 -25 24 C-24.32326553 20.59679066 -24.32326553 20.59679066 -24 17 C-25.82703227 14.7508092 -25.82703227 14.7508092 -28.5 14.75 C-31.17296773 14.7508092 -31.17296773 14.7508092 -33 17 Z " fill="#F8F9F9" transform="translate(231,131)"/>
<path d="M0 0 C0.99974854 0.00386719 1.99949707 0.00773437 3.02954102 0.01171875 C10.0460303 0.09389642 16.71949892 0.60179329 23.5625 2.25 C22.5725 2.58 21.5825 2.91 20.5625 3.25 C21.0575 6.22 21.0575 6.22 21.5625 9.25 C22.3875 9.435625 23.2125 9.62125 24.0625 9.8125 C28.77262519 11.7470157 32.36698014 14.253557 35.5625 18.25 C36.30858571 24.71607617 32.03700663 30.97994296 28.5625 36.25 C26.3951304 38.79368213 24.05294003 41.02722409 21.5625 43.25 C18.87613442 45.87666857 16.64664306 48.12378541 14.5625 51.25 C13.9025 51.25 13.2425 51.25 12.5625 51.25 C12.48 51.95125 12.3975 52.6525 12.3125 53.375 C11.39037803 56.90980087 9.5964534 59.22988738 7.5625 62.25 C6.31925853 65.4749208 6.31925853 65.4749208 5.5625 68.25 C4.9025 68.25 4.2425 68.25 3.5625 68.25 C3.5625 68.91 3.5625 69.57 3.5625 70.25 C-10.84212048 67.9935385 -23.22069654 56.92315703 -33.4375 47.25 C-34.02660156 46.70859375 -34.61570313 46.1671875 -35.22265625 45.609375 C-36.4375 44.25 -36.4375 44.25 -36.4375 42.25 C-37.0975 42.25 -37.7575 42.25 -38.4375 42.25 C-39.99711657 40.13337751 -41.41913222 38.03542875 -42.8125 35.8125 C-43.2151709 35.17521973 -43.6178418 34.53793945 -44.03271484 33.88134766 C-51.74551941 21.48006051 -51.74551941 21.48006051 -51.14453125 17.12890625 C-49.23690595 12.05947105 -42.90659814 9.70090178 -38.30859375 7.48046875 C-26.00321306 2.20673417 -13.33047359 -0.12574859 0 0 Z " fill="#356F37" transform="translate(211.4375,284.75)"/>
<path d="M0 0 C1.88021432 23.35644016 -5.37611009 48.59532315 -20.234375 66.7265625 C-22.4271822 69.22106465 -24.67774342 71.62613772 -27 74 C-27.73476563 74.78890625 -27.73476563 74.78890625 -28.484375 75.59375 C-36.46534878 83.29304236 -47.49043762 83.38613267 -57.85229492 83.2043457 C-59.90194735 83.15022741 -61.95108544 83.07715578 -64 83 C-63.29822123 79.76513406 -62.63523506 78.10818805 -60 76 C-59.34 76 -58.68 76 -58 76 C-57.62681641 75.15115234 -57.62681641 75.15115234 -57.24609375 74.28515625 C-55.80608409 71.64438619 -54.08409853 69.66238776 -52.0625 67.4375 C-51.37285156 66.67308594 -50.68320312 65.90867187 -49.97265625 65.12109375 C-49.32167969 64.42113281 -48.67070312 63.72117188 -48 63 C-47.25556641 62.12408203 -47.25556641 62.12408203 -46.49609375 61.23046875 C-44.54551842 59.62620966 -43.48638331 59.71489198 -41 59.875 C-38.1468155 60.03711276 -36.81066458 59.93688819 -34 59 C-36.31 59 -38.62 59 -41 59 C-41.33 58.34 -41.66 57.68 -42 57 C-39.99020948 52.89667768 -37.64757796 49.51684983 -34.74609375 46 C-30.60591843 40.71854626 -27.59070854 35.03152838 -24.5625 29.0625 C-24.02173828 28.02287109 -23.48097656 26.98324219 -22.92382812 25.91210938 C-20.1453273 21.18451012 -20.1453273 21.18451012 -19 16 C-19.47050781 16.68707031 -19.94101562 17.37414062 -20.42578125 18.08203125 C-21.04839844 18.98308594 -21.67101562 19.88414062 -22.3125 20.8125 C-22.92738281 21.70582031 -23.54226563 22.59914062 -24.17578125 23.51953125 C-26 26 -26 26 -27.54296875 27.51171875 C-29.11569253 28.9967196 -29.11569253 28.9967196 -30.25390625 31.15234375 C-32.77545663 35.26467088 -35.85693308 38.85882564 -38.9375 42.5625 C-39.86852539 43.69461914 -39.86852539 43.69461914 -40.81835938 44.84960938 C-43.74506383 48.38721273 -46.65701033 51.84133558 -50 55 C-53 53 -53 53 -53.6875 50.875 C-54.08477078 47.22010878 -54.06231163 43.67638613 -54 40 C-54.66 40 -55.32 40 -56 40 C-56.09030863 45.3683466 -56.15611783 50.46666176 -55.125 55.75 C-54.74877765 58.53404537 -54.79693412 59.64215426 -56.19921875 62.11328125 C-57.70891413 63.93734419 -59.13955823 65.53519648 -61 67 C-61.66 67 -62.32 67 -63 67 C-63 67.66 -63 68.32 -63 69 C-63.66 69 -64.32 69 -65 69 C-65 69.66 -65 70.32 -65 71 C-66.4609375 72.2890625 -66.4609375 72.2890625 -68.375 73.625 C-69.00148438 74.07101563 -69.62796875 74.51703125 -70.2734375 74.9765625 C-72 76 -72 76 -74 76 C-77.76021011 62.57067819 -78.41367123 49.61854325 -71.3359375 36.953125 C-59.88186441 20.2074041 -41.73102312 10.50538527 -23 4 C-21.89269531 3.60554687 -20.78539062 3.21109375 -19.64453125 2.8046875 C-12.92201449 0.55071353 -7.08896841 -0.5760787 0 0 Z " fill="#65AC43" transform="translate(349,181)"/>
<path d="M0 0 C0.02578125 0.84304688 0.0515625 1.68609375 0.078125 2.5546875 C0.13484375 3.65039062 0.1915625 4.74609375 0.25 5.875 C0.29640625 6.96554687 0.3428125 8.05609375 0.390625 9.1796875 C0.68751214 12.09924042 0.68751214 12.09924042 2.88671875 13.32421875 C3.58410156 13.54722656 4.28148437 13.77023437 5 14 C9.98453362 15.82360986 12.08801406 17.11638871 14.43359375 21.9609375 C16.75005116 27.47532981 17.78178033 33.34435773 19.01757812 39.17382812 C20.31379575 44.96695608 22.1666337 49.80012016 25 55 C26.11985392 57.6522856 27.08948056 60.26844168 28 63 C22.21688034 63.61770164 19.04259622 61.73178109 14.375 58.6875 C13.68003418 58.24325684 12.98506836 57.79901367 12.26904297 57.34130859 C-4.68606982 46.18959757 -4.68606982 46.18959757 -8 38 C-8.66 38 -9.32 38 -10 38 C-11.55961657 35.88337751 -12.98163222 33.78542875 -14.375 31.5625 C-14.7776709 30.92521973 -15.1803418 30.28793945 -15.59521484 29.63134766 C-23.30801941 17.23006051 -23.30801941 17.23006051 -22.70703125 12.87890625 C-20.73862692 7.6479533 -14.15859526 5.39176263 -9.4453125 3.10546875 C-2.57597173 0 -2.57597173 0 0 0 Z " fill="#2788C5" transform="translate(183,289)"/>
<path d="M0 0 C5.37043877 1.08161201 10.96652306 0.95492404 16.23046875 -0.55078125 C14.85546875 1.94921875 14.85546875 1.94921875 13.23046875 4.44921875 C12.57046875 4.44921875 11.91046875 4.44921875 11.23046875 4.44921875 C11.23046875 5.10921875 11.23046875 5.76921875 11.23046875 6.44921875 C6.75988051 10.44921875 6.75988051 10.44921875 4.23046875 10.44921875 C4.23046875 11.10921875 4.23046875 11.76921875 4.23046875 12.44921875 C1.98708515 13.99022044 -0.23639322 15.39200106 -2.58203125 16.76171875 C-3.26402588 17.16398682 -3.94602051 17.56625488 -4.64868164 17.98071289 C-12.69575915 22.66060703 -20.61276286 26.54875739 -29.76953125 28.44921875 C-30.41654841 16.73101915 -29.96325571 9.65635287 -22.20703125 0.38671875 C-15.2584723 -3.52974175 -7.43456876 -1.90942476 0 0 Z " fill="#347037" transform="translate(305.76953125,329.55078125)"/>
<path d="M0 0 C2.12546959 0.81127079 4.25036195 1.62405398 6.375 2.4375 C7.55835938 2.88996094 8.74171875 3.34242188 9.9609375 3.80859375 C13 5 13 5 15 6 C16.59031756 6.28703556 18.18834079 6.53211951 19.7890625 6.75390625 C21.20058594 6.95209961 21.20058594 6.95209961 22.640625 7.15429688 C23.62546875 7.28900391 24.6103125 7.42371094 25.625 7.5625 C26.61757813 7.70107422 27.61015625 7.83964844 28.6328125 7.98242188 C31.08812392 8.32474895 33.54384277 8.66380439 36 9 C35.22093924 12.47238509 34.04464928 15.05570504 32 18 C31.34 18 30.68 18 30 18 C29.67 18.66 29.34 19.32 29 20 C22.36774634 22.29859564 15.07425945 21.2027224 8.4453125 19.50390625 C4.47118943 18.68495757 0.45212965 18.54808736 -3.59375 18.34375 C-4.3878125 18.2303125 -5.181875 18.116875 -6 18 C-6.33 17.34 -6.66 16.68 -7 16 C-8.64363134 15.27840576 -10.31050386 14.60648579 -12 14 C-12.31002782 10.58969398 -12.43044252 8.64566377 -10.5 5.75 C-7.09196718 3.36437703 -4.07129331 2.81425866 0 2 C0 1.34 0 0.68 0 0 Z " fill="#2A88C0" transform="translate(293,310)"/>
<path d="M0 0 C-0.33 3.3 -0.66 6.6 -1 10 C4.94 10 10.88 10 17 10 C17 10.66 17 11.32 17 12 C16.05898437 12.30292969 15.11796875 12.60585937 14.1484375 12.91796875 C12.90320313 13.33691406 11.65796875 13.75585938 10.375 14.1875 C9.14523438 14.59355469 7.91546875 14.99960938 6.6484375 15.41796875 C2.89410309 16.80843937 2.89410309 16.80843937 0.14453125 19.62890625 C-4.13577226 22.85641461 -7.46497932 22.74200838 -12.6875 22.75 C-14.37897352 22.78319118 -16.07038921 22.81951649 -17.76171875 22.859375 C-18.50381592 22.86420898 -19.24591309 22.86904297 -20.01049805 22.87402344 C-22.21079497 22.92824025 -22.21079497 22.92824025 -25 24 C-27.33299825 24.03954234 -29.66708189 24.04401732 -32 24 C-32.50974757 18.64765052 -31.30895317 16.17973032 -28 12 C-23.08440757 6.08265177 -18.55431667 4.4604356 -11.1875 2.625 C-10.22134766 2.36589844 -9.25519531 2.10679687 -8.25976562 1.83984375 C-1.33358135 0 -1.33358135 0 0 0 Z " fill="#CA8A4E" transform="translate(171,150)"/>
<path d="M0 0 C1.25103516 0.50660156 1.25103516 0.50660156 2.52734375 1.0234375 C8.98886647 3.58436174 15.16536754 5.72574649 22 7 C18.62047409 8.97344579 15.54687643 9.49206797 11.6875 10 C8.07164899 10.50904718 4.60190157 11.00035302 1.125 12.125 C-2.36473431 13.10212561 -5.39358911 13.14720044 -9 13 C-9.8125 11.3125 -9.8125 11.3125 -10 9 C-7.0833938 5.39713352 -4.41743795 3.38833764 0 2 C0 1.34 0 0.68 0 0 Z " fill="#3B703F" transform="translate(293,310)"/>
<path d="M0 0 C0.99 0 1.98 0 3 0 C5.07639763 2.87501211 6.3543999 5.51375944 7 9 C7.66 9 8.32 9 9 9 C9 9.66 9 10.32 9 11 C9.99 11 10.98 11 12 11 C13.35278115 12.98689731 14.68568305 14.98745218 16 17 C16.99 17.33 17.98 17.66 19 18 C19.33 18.66 19.66 19.32 20 20 C20.99 20.33 21.98 20.66 23 21 C23 21.99 23 22.98 23 24 C23.66 24 24.32 24 25 24 C25.33 24.66 25.66 25.32 26 26 C26.99 26.33 27.98 26.66 29 27 C29 27.66 29 28.32 29 29 C30.98 28.67 32.96 28.34 35 28 C35.66 29.32 36.32 30.64 37 32 C38.65 32 40.3 32 42 32 C42.66 33.32 43.32 34.64 44 36 C38.21688034 36.61770164 35.04259622 34.73178109 30.375 31.6875 C29.68003418 31.24325684 28.98506836 30.79901367 28.26904297 30.34130859 C11.31393018 19.18959757 11.31393018 19.18959757 8 11 C7.34 11 6.68 11 6 11 C4.4921875 9.1015625 4.4921875 9.1015625 2.875 6.625 C2.33617187 5.81289063 1.79734375 5.00078125 1.2421875 4.1640625 C0 2 0 2 0 0 Z " fill="#427EA3" transform="translate(167,316)"/>
<path d="M0 0 C-0.33 3.3 -0.66 6.6 -1 10 C4.94 10 10.88 10 17 10 C17 10.66 17 11.32 17 12 C9.88961628 14.37012791 2.06195608 14.09686524 -5.375 14.125 C-6.05264404 14.12959229 -6.73028809 14.13418457 -7.4284668 14.13891602 C-11.07771031 14.12760965 -14.45168986 13.86310247 -18 13 C-17.67 12.34 -17.34 11.68 -17 11 C-12.17574056 9.52819204 -8.07522852 8.74623857 -3 9 C-2.67 7.35 -2.34 5.7 -2 4 C-3.32 4 -4.64 4 -6 4 C-6 3.34 -6 2.68 -6 2 C-1.125 0 -1.125 0 0 0 Z " fill="#D58A43" transform="translate(171,150)"/>
<path d="M0 0 C-0.99 0.495 -0.99 0.495 -2 1 C-2.72159424 2.64363134 -3.39351421 4.31050386 -4 6 C-2.68 6.33 -1.36 6.66 0 7 C-1.65 7.33 -3.3 7.66 -5 8 C-4.896875 8.845625 -4.79375 9.69125 -4.6875 10.5625 C-5.1031406 15.13454663 -7.13529464 17.54189139 -10 21 C-11 18 -11 18 -9.5625 14.9375 C-8.7890625 13.4834375 -8.7890625 13.4834375 -8 12 C-8 11.34 -8 10.68 -8 10 C-10.475 9.01 -10.475 9.01 -13 8 C-13 7.34 -13 6.68 -13 6 C-17.455 6.495 -17.455 6.495 -22 7 C-20.43167109 3.86334218 -17.77970814 3.6179652 -14.5625 2.4375 C-5.21505422 -1.02033669 -5.21505422 -1.02033669 0 0 Z " fill="#65A145" transform="translate(334,185)"/>
<path d="M0 0 C1.79920898 0.03383789 1.79920898 0.03383789 3.63476562 0.06835938 C6.57033803 0.12683691 9.50323808 0.20874251 12.4375 0.3125 C12.4375 0.6425 12.4375 0.9725 12.4375 1.3125 C10.52083333 1.79166667 8.60416667 2.27083333 6.6875 2.75 C5.08648437 3.15025391 5.08648437 3.15025391 3.453125 3.55859375 C1.65104167 4.00911458 -0.15104167 4.45963542 -1.953125 4.91015625 C-2.48421875 5.04292969 -3.0153125 5.17570313 -3.5625 5.3125 C-3.5625 5.9725 -3.5625 6.6325 -3.5625 7.3125 C-6.35442205 7.36630578 -9.1453141 7.40607669 -11.9375 7.4375 C-12.7315625 7.45425781 -13.525625 7.47101563 -14.34375 7.48828125 C-16.41742015 7.50585473 -18.49133241 7.41585168 -20.5625 7.3125 C-21.2225 6.6525 -21.8825 5.9925 -22.5625 5.3125 C-15.20254915 -0.02891417 -8.8943223 -0.31993965 0 0 Z " fill="#EB8E36" transform="translate(169.5625,162.6875)"/>
<path d="M0 0 C-0.165 1.2375 -0.33 2.475 -0.5 3.75 C-1.35032105 11.4393318 -1.68710684 19.4080192 0 27 C0.66 27 1.32 27 2 27 C2 26.34 2 25.68 2 25 C3.65532623 23.98133771 5.32260138 22.98189187 7 22 C7.33 21.34 7.66 20.68 8 20 C8.66 20 9.32 20 10 20 C10.33 20.99 10.66 21.98 11 23 C10.34 23 9.68 23 9 23 C9 23.66 9 24.32 9 25 C8.34 25 7.68 25 7 25 C7 25.66 7 26.32 7 27 C5.5390625 28.2890625 5.5390625 28.2890625 3.625 29.625 C2.99851562 30.07101563 2.37203125 30.51703125 1.7265625 30.9765625 C0 32 0 32 -2 32 C-5.03374117 21.1652101 -6.13992284 12.02849442 -3 1 C-1 0 -1 0 0 0 Z " fill="#7AA061" transform="translate(277,225)"/>
<path d="M0 0 C0.99 0.33 1.98 0.66 3 1 C2.01 1.33 1.02 1.66 0 2 C-0.33 3.98 -0.66 5.96 -1 8 C3.78478822 8.09764874 8.27685687 7.77112541 13 7 C13 7.66 13 8.32 13 9 C11.02 9.99 11.02 9.99 9 11 C17.34067679 13.13898002 25.39691968 14.55046968 34 15 C33.67 15.66 33.34 16.32 33 17 C27.20370709 17.21781476 22.06380689 16.9437713 16.4453125 15.50390625 C12.47118943 14.68495757 8.45212965 14.54808736 4.40625 14.34375 C3.6121875 14.2303125 2.818125 14.116875 2 14 C1.67 13.34 1.34 12.68 1 12 C-0.64363134 11.27840576 -2.31050386 10.60648579 -4 10 C-4.25 7.25 -4.25 7.25 -4 4 C-2 1.625 -2 1.625 0 0 Z " fill="#2F86A5" transform="translate(285,314)"/>
<path d="M0 0 C0.33 0.66 0.66 1.32 1 2 C2.32 2 3.64 2 5 2 C5 3.65 5 5.3 5 7 C0.96130743 8.34623086 -3.09799535 8.88086731 -7.3125 9.4375 C-8.6428125 9.7159375 -8.6428125 9.7159375 -10 10 C-10.33 10.66 -10.66 11.32 -11 12 C-12.65 12 -14.3 12 -16 12 C-16.268125 12.639375 -16.53625 13.27875 -16.8125 13.9375 C-18 16 -18 16 -21 17 C-21 15.68 -21 14.36 -21 13 C-20.34 13 -19.68 13 -19 13 C-19 12.34 -19 11.68 -19 11 C-15.76648944 6.32937363 -12.7799172 5.52226054 -7.25 4.375 C-5.52523437 4.07722656 -5.52523437 4.07722656 -3.765625 3.7734375 C-2.85296875 3.51820313 -1.9403125 3.26296875 -1 3 C-0.67 2.01 -0.34 1.02 0 0 Z " fill="#EF902F" transform="translate(164,152)"/>
<path d="M0 0 C0.99 0.33 1.98 0.66 3 1 C1.625 3 1.625 3 0 5 C-0.66 5 -1.32 5 -2 5 C-2 5.66 -2 6.32 -2 7 C-6.47058824 11 -6.47058824 11 -9 11 C-9 11.66 -9 12.32 -9 13 C-11.32673673 14.57810844 -13.6386604 16.02340319 -16.0625 17.4375 C-16.71927734 17.83259766 -17.37605469 18.22769531 -18.05273438 18.63476562 C-22.25533872 21.12320426 -26.47246794 23.16896948 -31 25 C-31 24.34 -31 23.68 -31 23 C-31.66 22.67 -32.32 22.34 -33 22 C-32.43152344 21.75765625 -31.86304688 21.5153125 -31.27734375 21.265625 C-17.84469588 15.81603033 -17.84469588 15.81603033 -8 6 C-6.68 6 -5.36 6 -4 6 C-4 5.34 -4 4.68 -4 4 C-6.64 4 -9.28 4 -12 4 C-12 3.67 -12 3.34 -12 3 C-11.38511719 2.95101563 -10.77023437 2.90203125 -10.13671875 2.8515625 C-9.32847656 2.77679688 -8.52023437 2.70203125 -7.6875 2.625 C-6.88699219 2.55539062 -6.08648437 2.48578125 -5.26171875 2.4140625 C-2.72775559 2.10435574 -2.72775559 2.10435574 0 0 Z " fill="#4F724A" transform="translate(319,329)"/>
<path d="M0 0 C0.66 0.33 1.32 0.66 2 1 C1.38125 1.9075 0.7625 2.815 0.125 3.75 C-3.37200884 9.09836646 -4.35316157 12.83914371 -4.625 19.25 C-4.66367187 19.99507813 -4.70234375 20.74015625 -4.7421875 21.5078125 C-4.83605108 23.3381524 -4.91909718 25.16904143 -5 27 C-12.38031696 30.03605012 -19.10686413 30.12640253 -27 30 C-26.67 29.34 -26.34 28.68 -26 28 C-23.36353841 27.35710444 -20.79418621 26.82992217 -18.125 26.375 C-17.39152344 26.2409375 -16.65804688 26.106875 -15.90234375 25.96875 C-12.89693262 25.43226495 -10.05850122 25 -7 25 C-7.04640625 24.09378906 -7.0928125 23.18757813 -7.140625 22.25390625 C-7.36126921 14.8071642 -7.39919952 8.29718192 -3 2 C-2.01 1.34 -1.02 0.68 0 0 Z " fill="#3083A0" transform="translate(281,331)"/>
<path d="M0 0 C1.125 3.75 1.125 3.75 0 6 C1.32 5.67 2.64 5.34 4 5 C5 9.75 5 9.75 5 12 C6.45833358 13.62514468 6.45833358 13.62514468 8 15 C6.73461631 15.84158536 5.46246221 16.67299748 4.1875 17.5 C3.47980469 17.9640625 2.77210938 18.428125 2.04296875 18.90625 C0 20 0 20 -3 20 C-3.41640288 12.7515055 -2.44166784 6.83085645 0 0 Z " fill="#C1BEC0" transform="translate(163,276)"/>
<path d="M0 0 C0.66 0.99 1.32 1.98 2 3 C0.625 5.5 0.625 5.5 -1 8 C-1.66 8 -2.32 8 -3 8 C-3 10.31 -3 12.62 -3 15 C-2.00419922 15.07347656 -2.00419922 15.07347656 -0.98828125 15.1484375 C8.46790733 15.94910748 8.46790733 15.94910748 12 18 C12.33 18.99 12.66 19.98 13 21 C5.69354394 19.94915607 -1.06392339 18.54322809 -8 16 C-8 15.01 -8 14.02 -8 13 C-7.34 12.67 -6.68 12.34 -6 12 C-5.15307099 9.77403998 -4.53153701 7.51636413 -3.87890625 5.2265625 C-2.94068882 2.84974501 -1.91619938 1.65465684 0 0 Z " fill="#3B87A4" transform="translate(223,340)"/>
<path d="M0 0 C0.91072266 0.26039063 1.82144531 0.52078125 2.75976562 0.7890625 C3.70916016 1.07007813 4.65855469 1.35109375 5.63671875 1.640625 C6.57451172 1.90617187 7.51230469 2.17171875 8.47851562 2.4453125 C13.37782402 3.86780373 17.86218322 5.40922501 22.32421875 7.890625 C22.32421875 8.550625 22.32421875 9.210625 22.32421875 9.890625 C20.40613766 9.43824739 18.48979842 8.97848037 16.57421875 8.515625 C15.506875 8.26039063 14.43953125 8.00515625 13.33984375 7.7421875 C10.32421875 6.890625 10.32421875 6.890625 8.23046875 5.796875 C5.87888962 4.67891115 4.16248697 4.68949946 1.57421875 4.765625 C0.37539062 4.79269531 0.37539062 4.79269531 -0.84765625 4.8203125 C-1.75257813 4.85511719 -1.75257813 4.85511719 -2.67578125 4.890625 C-2.34578125 5.880625 -2.01578125 6.870625 -1.67578125 7.890625 C-4.11328125 7.265625 -4.11328125 7.265625 -6.67578125 5.890625 C-7.48828125 2.765625 -7.48828125 2.765625 -7.67578125 -0.109375 C-4.28522442 -1.23956061 -3.34241292 -0.96121679 0 0 Z " fill="#4681A7" transform="translate(239.67578125,288.109375)"/>
<path d="M0 0 C1.34173403 0.92543709 2.67320159 1.86577405 4 2.8125 C5.11375 3.59560547 5.11375 3.59560547 6.25 4.39453125 C7.11625 5.18923828 7.11625 5.18923828 8 6 C8 6.99 8 7.98 8 9 C3.64787402 11.17606299 -2.06110741 10.48970562 -6.66015625 9.328125 C-8.80153356 8.60867652 -10.90704601 7.84931466 -13 7 C-13 6.67 -13 6.34 -13 6 C-12.24074219 5.93941406 -11.48148437 5.87882812 -10.69921875 5.81640625 C-9.70535156 5.73261719 -8.71148437 5.64882813 -7.6875 5.5625 C-6.70136719 5.48128906 -5.71523438 5.40007812 -4.69921875 5.31640625 C-1.90624401 5.08187441 -1.90624401 5.08187441 1 4 C0.67 2.68 0.34 1.36 0 0 Z " fill="#CCC9CA" transform="translate(326,306)"/>
<path d="M0 0 C0.33 0.66 0.66 1.32 1 2 C-8.78987782 6.9279385 -18.34392401 6.39753237 -29 6 C-28.67 4.68 -28.34 3.36 -28 2 C-27.01 2 -26.02 2 -25 2 C-25 2.33 -25 2.66 -25 3 C-22.22829605 2.88613541 -19.45821954 2.75939222 -16.6875 2.625 C-15.90181641 2.5940625 -15.11613281 2.563125 -14.30664062 2.53125 C-13.54931641 2.49257813 -12.79199219 2.45390625 -12.01171875 2.4140625 C-11.31522217 2.3826416 -10.61872559 2.3512207 -9.90112305 2.31884766 C-6.01519936 1.66711832 -4.26504136 -0.23054278 0 0 Z " fill="#669046" transform="translate(314,258)"/>
<path d="M0 0 C7.04587402 2.04970881 13.47860877 5.01435398 20.05834961 8.21875 C20.76741455 8.56164062 21.47647949 8.90453125 22.20703125 9.2578125 C22.8410083 9.5686377 23.47498535 9.87946289 24.12817383 10.19970703 C26.06363963 11.02720891 27.9479044 11.54473658 30 12 C30 12.99 30 13.98 30 15 C28.35 15.66 26.7 16.32 25 17 C25.33 15.68 25.66 14.36 26 13 C25.195625 12.9175 24.39125 12.835 23.5625 12.75 C19.04065795 11.79803325 15.15297299 9.98419821 11 8 C11 7.34 11 6.68 11 6 C10.37351562 5.90203125 9.74703125 5.8040625 9.1015625 5.703125 C7.87566406 5.47882813 7.87566406 5.47882813 6.625 5.25 C5.40683594 5.04117187 5.40683594 5.04117187 4.1640625 4.828125 C2 4 2 4 0.7109375 1.921875 C0.47632813 1.28765625 0.24171875 0.6534375 0 0 Z " fill="#4384A1" transform="translate(263,297)"/>
<path d="M0 0 C-0.7734375 0.37125 -0.7734375 0.37125 -1.5625 0.75 C-7.68651661 3.79448032 -7.68651661 3.79448032 -13 8 C-16.25845064 8.57132297 -19.5727298 8.60642303 -22.875 8.75 C-23.78636719 8.80542969 -24.69773438 8.86085937 -25.63671875 8.91796875 C-26.51714844 8.96050781 -27.39757812 9.00304687 -28.3046875 9.046875 C-29.10890137 9.08651367 -29.91311523 9.12615234 -30.74169922 9.16699219 C-33.26521207 8.98038864 -34.83141856 8.26702241 -37 7 C-35 5 -35 5 -32.93701172 4.86474609 C-32.10959473 4.91711426 -31.28217773 4.96948242 -30.4296875 5.0234375 C-29.08583984 5.10078125 -29.08583984 5.10078125 -27.71484375 5.1796875 C-26.77769531 5.24414062 -25.84054688 5.30859375 -24.875 5.375 C-23.93011719 5.43171875 -22.98523438 5.4884375 -22.01171875 5.546875 C-19.67373519 5.68857097 -17.33679056 5.83999783 -15 6 C-15 5.34 -15 4.68 -15 4 C-13.44219668 3.32243118 -11.87849904 2.65840543 -10.3125 2 C-9.44238281 1.62875 -8.57226562 1.2575 -7.67578125 0.875 C-4.9427998 -0.01870488 -2.85299066 -0.16449676 0 0 Z " fill="#CD8444" transform="translate(181,164)"/>
<path d="M0 0 C0 0.66 0 1.32 0 2 C-0.66 2 -1.32 2 -2 2 C-2.268125 2.61875 -2.53625 3.2375 -2.8125 3.875 C-4 6 -4 6 -7 8 C-7.66 7.67 -8.32 7.34 -9 7 C-8.91291331 8.45945288 -8.80473093 9.91765868 -8.6875 11.375 C-8.62949219 12.18710937 -8.57148438 12.99921875 -8.51171875 13.8359375 C-8.17009472 16.37921338 -8.17009472 16.37921338 -5 18 C-5.33 18.99 -5.66 19.98 -6 21 C-9 20 -9 20 -10.203125 18.07421875 C-10.54859375 17.28660156 -10.8940625 16.49898438 -11.25 15.6875 C-11.60578125 14.90761719 -11.9615625 14.12773437 -12.328125 13.32421875 C-13.08584615 10.70303222 -13.0238783 9.50636875 -12 7 C-4.36363636 0 -4.36363636 0 0 0 Z " fill="#3F7DAA" transform="translate(173,293)"/>
<path d="M0 0 C0.70640625 0.2784375 1.4128125 0.556875 2.140625 0.84375 C1.810625 1.50375 1.480625 2.16375 1.140625 2.84375 C-1.421875 3.46875 -1.421875 3.46875 -3.859375 3.84375 C-3.983125 4.4625 -4.106875 5.08125 -4.234375 5.71875 C-4.859375 7.84375 -4.859375 7.84375 -6.859375 9.84375 C-7.148125 10.50375 -7.436875 11.16375 -7.734375 11.84375 C-9.0957454 14.26396404 -10.32484055 14.82993622 -12.859375 15.84375 C-12.859375 16.83375 -12.859375 17.82375 -12.859375 18.84375 C-13.519375 18.84375 -14.179375 18.84375 -14.859375 18.84375 C-14.51259548 12.60171857 -12.74962774 9.68939387 -8.609375 5.34375 C-8.13113281 4.79460937 -7.65289062 4.24546875 -7.16015625 3.6796875 C-3.56782921 -0.19496334 -3.56782921 -0.19496334 0 0 Z " fill="#6BAA4E" transform="translate(291.859375,205.15625)"/>
<path d="M0 0 C0 3 0 3 -0.75 6.4375 C-1.37518912 9.98290747 -1.37518912 9.98290747 0.625 12.3125 C3.04016865 14.02854088 5.25130237 14.92733751 8 16 C10.83000013 17.64534891 12.58578902 18.89828419 13.7578125 22.015625 C14.89371406 26.71921738 15.20517883 31.1782974 15 36 C13.54117025 33.2388673 12.47752638 30.54538261 11.5625 27.5625 C9.39401553 20.80706072 9.39401553 20.80706072 4.0625 16.4375 C3.051875 15.963125 2.04125 15.48875 1 15 C-1.375 13.4375 -1.375 13.4375 -3 11 C-3.32805051 7.64012781 -3.23111916 4.3640678 -3 1 C-2.01 0.67 -1.02 0.34 0 0 Z " fill="#327560" transform="translate(186,288)"/>
<path d="M0 0 C4.86700562 4.86700562 6.17628195 12.68916659 8.03515625 19.109375 C8.90852824 22.14741253 8.90852824 22.14741253 11 25 C11 25.99 11 26.98 11 28 C12.98 27.34 14.96 26.68 17 26 C16.67 26.99 16.34 27.98 16 29 C15.34 29 14.68 29 14 29 C14 29.66 14 30.32 14 31 C10.65626525 30.44271087 7.96687001 29.64826111 5 28 C5.66 27.67 6.32 27.34 7 27 C7.99 27.33 8.98 27.66 10 28 C9.566875 27.505 9.13375 27.01 8.6875 26.5 C6.4719389 23.21768726 5.27399049 19.71690008 4 16 C3.59394531 14.87464844 3.59394531 14.87464844 3.1796875 13.7265625 C1.56567058 9.1352328 0.51494474 4.84048053 0 0 Z " fill="#2C7157" transform="translate(201,324)"/>
<path d="M0 0 C2.12508244 3.18762365 2.5020163 5.26512223 3 9 C3.99 9.33 4.98 9.66 6 10 C6.20625 9.05125 6.4125 8.1025 6.625 7.125 C8 4 8 4 11.125 2.625 C12.548125 2.315625 12.548125 2.315625 14 2 C12.52493771 5.20697623 10.71194552 7.8909096 8.5625 10.6875 C7.96566406 11.47511719 7.36882812 12.26273438 6.75390625 13.07421875 C5 15 5 15 2 16 C0.00383446 14.00383446 0.59016573 10.18298037 0.4375 7.4375 C0.39431641 6.72658203 0.35113281 6.01566406 0.30664062 5.28320312 C0.20028223 3.52238088 0.09961154 1.7612168 0 0 Z " fill="#719D53" transform="translate(296,220)"/>
<path d="M0 0 C2.49361571 1.20381448 4.68143083 2.45428722 7 4 C7.672 10.944 7.672 10.944 5.6875 14.0625 C4.8521875 15.0215625 4.8521875 15.0215625 4 16 C3.525625 17.175625 3.05125 18.35125 2.5625 19.5625 C1.03139356 22.93093417 0.12178521 24.16998798 -3 26 C-3.66 25.67 -4.32 25.34 -5 25 C-4.35611328 24.43925781 -4.35611328 24.43925781 -3.69921875 23.8671875 C-1.53421476 21.48817162 -0.2616083 18.99459224 1.1875 16.125 C1.98220703 14.58199219 1.98220703 14.58199219 2.79296875 13.0078125 C4.00079046 9.99803024 4.41888376 8.19330866 4 5 C2.10183458 2.2094183 2.10183458 2.2094183 0 0 Z " fill="#2E85A0" transform="translate(242,298)"/>
<path d="M0 0 C-4.73901961 4.73901961 -15.09252985 3.11611325 -21.5625 3.1875 C-22.61655029 3.20707764 -22.61655029 3.20707764 -23.69189453 3.22705078 C-25.46287835 3.2300781 -27.23329459 3.12306449 -29 3 C-29.66 2.34 -30.32 1.68 -31 1 C-20.66192051 -0.1555538 -10.38437692 -0.09776087 0 0 Z " fill="#A65C18" transform="translate(187,161)"/>
<path d="M0 0 C0 0.33 0 0.66 0 1 C-2.10409639 1.02701408 -4.20829178 1.04640223 -6.3125 1.0625 C-7.48425781 1.07410156 -8.65601563 1.08570313 -9.86328125 1.09765625 C-13 1 -13 1 -16 0 C-24.33762771 -0.89060738 -24.33762771 -0.89060738 -32.25390625 1.1171875 C-34.06105099 2.58430936 -34.06105099 2.58430936 -36 5 C-30.45684827 -9.10984076 -11.40550422 -2.27028994 0 0 Z " fill="#2C7767" transform="translate(316,331)"/>
<path d="M0 0 C0.66 0.66 1.32 1.32 2 2 C-3.83289859 5.84992403 -9.44489755 9.52362796 -16 12 C-16 11.34 -16 10.68 -16 10 C-16.66 9.67 -17.32 9.34 -18 9 C-17.43152344 8.75765625 -16.86304688 8.5153125 -16.27734375 8.265625 C-11.31622714 6.11221879 -6.65326014 3.75397028 -2 1 C-1.34 0.67 -0.68 0.34 0 0 Z " fill="#4C6E47" transform="translate(304,342)"/>
<path d="M0 0 C2.97 0.495 2.97 0.495 6 1 C5.01 1.495 5.01 1.495 4 2 C3.27840576 3.64363134 2.60648579 5.31050386 2 7 C3.32 7.33 4.64 7.66 6 8 C4.35 8.33 2.7 8.66 1 9 C1.103125 9.845625 1.20625 10.69125 1.3125 11.5625 C0.8968594 16.13454663 -1.13529464 18.54189139 -4 22 C-5.32830615 18.01508155 -4.23204404 16.59951452 -2.5625 12.8125 C-2.08941406 11.72582031 -1.61632812 10.63914063 -1.12890625 9.51953125 C-0.75636719 8.68808594 -0.38382812 7.85664063 0 7 C-0.66 6.67 -1.32 6.34 -2 6 C-1.34 5.67 -0.68 5.34 0 5 C0 3.35 0 1.7 0 0 Z " fill="#70AF4E" transform="translate(328,184)"/>
<path d="M0 0 C2.31 0.66 4.62 1.32 7 2 C7 2.66 7 3.32 7 4 C8.98 3.67 10.96 3.34 13 3 C13.66 4.32 14.32 5.64 15 7 C16.65 7 18.3 7 20 7 C20.66 8.32 21.32 9.64 22 11 C15.92574131 11.75688712 12.48102878 9.28082649 7.625 6.0625 C6.88894531 5.59392578 6.15289062 5.12535156 5.39453125 4.64257812 C1.54948951 2.16363192 1.54948951 2.16363192 0 1 C0 0.67 0 0.34 0 0 Z " fill="#4D85A8" transform="translate(189,341)"/>
<path d="M0 0 C0.33 0.99 0.66 1.98 1 3 C-6.09326321 4.72330907 -12.70968976 5.2494783 -20 5 C-19.67 4.34 -19.34 3.68 -19 3 C-16.36353841 2.35710444 -13.79418621 1.82992217 -11.125 1.375 C-10.39152344 1.2409375 -9.65804688 1.106875 -8.90234375 0.96875 C-5.89693262 0.43226495 -3.05850122 0 0 0 Z " fill="#4985AB" transform="translate(274,356)"/>
<path d="M0 0 C0.02578125 0.84304688 0.0515625 1.68609375 0.078125 2.5546875 C0.13484375 3.65039062 0.1915625 4.74609375 0.25 5.875 C0.29640625 6.96554687 0.3428125 8.05609375 0.390625 9.1796875 C0.68797443 12.09906116 0.68797443 12.09906116 2.88671875 13.328125 C3.58410156 13.54984375 4.28148437 13.7715625 5 14 C8.92261864 15.33943075 10.76151666 16.46555262 13 20 C12.15308594 19.566875 12.15308594 19.566875 11.2890625 19.125 C8.24999966 17.63139915 5.13902526 16.32490111 2.0234375 15 C0 14 0 14 -2 12 C-2.33333333 6.66666667 -2.33333333 6.66666667 -1 4 C-1.66 4 -2.32 4 -3 4 C-3 3.01 -3 2.02 -3 1 C-1 0 -1 0 0 0 Z " fill="#408CA4" transform="translate(183,289)"/>
<path d="M0 0 C-0.93972656 0.50660156 -0.93972656 0.50660156 -1.8984375 1.0234375 C-2.71570313 1.46945313 -3.53296875 1.91546875 -4.375 2.375 C-5.18710938 2.81585938 -5.99921875 3.25671875 -6.8359375 3.7109375 C-9.10814302 4.9443893 -9.10814302 4.9443893 -11 7 C-10.01 7.66 -9.02 8.32 -8 9 C-10.95664519 10.4783226 -13.74229737 10.06032783 -17 10 C-17 8.35 -17 6.7 -17 5 C-16.34 5.66 -15.68 6.32 -15 7 C-14.030625 6.21625 -13.06125 5.4325 -12.0625 4.625 C-11.24458984 3.96371094 -11.24458984 3.96371094 -10.41015625 3.2890625 C-8.86733563 2.0333609 -8.86733563 2.0333609 -8 0 C-4.71585695 -0.95067299 -3.30306592 -1.10102197 0 0 Z " fill="#AE6425" transform="translate(156,164)"/>
<path d="M0 0 C2.64 0 5.28 0 8 0 C7.35494404 3.48330216 6.01782732 6.09432866 4 9 C3.34 9 2.68 9 2 9 C1.67 9.66 1.34 10.32 1 11 C0.34 10.34 -0.32 9.68 -1 9 C-0.34 9 0.32 9 1 9 C1.26932521 4.34947128 1.26932521 4.34947128 0 0 Z " fill="#5687A6" transform="translate(321,319)"/>
<path d="M0 0 C0.33 0.66 0.66 1.32 1 2 C-1.62368232 6.17845703 -4.24345739 9.72506542 -8 13 C-8.99 13 -9.98 13 -11 13 C-11.33 13.99 -11.66 14.98 -12 16 C-12 14.68 -12 13.36 -12 12 C-11.34 12 -10.68 12 -10 12 C-9.6596875 11.1646875 -9.6596875 11.1646875 -9.3125 10.3125 C-7.63281165 7.3530491 -5.45866715 5.33873216 -3 3 C-2.401875 2.401875 -1.80375 1.80375 -1.1875 1.1875 C-0.795625 0.795625 -0.40375 0.40375 0 0 Z " fill="#2C8399" transform="translate(236,324)"/>
<path d="M0 0 C3.63 0.66 7.26 1.32 11 2 C7.22961318 3.88519341 4.78892683 4.48897498 0.6875 5.0625 C-1.02953125 5.30806641 -1.02953125 5.30806641 -2.78125 5.55859375 C-3.8434375 5.70425781 -4.905625 5.84992188 -6 6 C-7.43759108 6.20770391 -8.87511535 6.41587231 -10.3125 6.625 C-11.199375 6.74875 -12.08625 6.8725 -13 7 C-11.24135754 4.8206856 -10.30604 4.06313581 -7.51953125 3.48828125 C-6.62621094 3.43027344 -5.73289062 3.37226563 -4.8125 3.3125 C-3.91144531 3.24675781 -3.01039063 3.18101562 -2.08203125 3.11328125 C-1.05142578 3.05720703 -1.05142578 3.05720703 0 3 C0 2.01 0 1.02 0 0 Z " fill="#377464" transform="translate(304,315)"/>
<path d="M0 0 C0 0.66 0 1.32 0 2 C-1.65 2.33 -3.3 2.66 -5 3 C-5.66 4.98 -6.32 6.96 -7 9 C-7.33 8.01 -7.66 7.02 -8 6 C-10.31 6.66 -12.62 7.32 -15 8 C-11.29230481 3.82884292 -5.73708737 -1.91236246 0 0 Z " fill="#719F56" transform="translate(308,195)"/>
<path d="M0 0 C0.5625 1.9375 0.5625 1.9375 1 4 C0.67 4.33 0.34 4.66 0 5 C-0.07226502 6.85287502 -0.0838122 8.70833878 -0.0625 10.5625 C-0.05347656 11.57441406 -0.04445313 12.58632813 -0.03515625 13.62890625 C-0.02355469 14.41136719 -0.01195312 15.19382812 0 16 C2.97 16 5.94 16 9 16 C5.31265242 18.45823172 2.30300029 19.01242616 -2 20 C-2.05407567 17.41638482 -2.093707 14.83390745 -2.125 12.25 C-2.14175781 11.52039063 -2.15851563 10.79078125 -2.17578125 10.0390625 C-2.21072239 6.1955376 -2.17499684 3.25393228 0 0 Z " fill="#3E6F58" transform="translate(278,338)"/>
<path d="M0 0 C2.64 0.66 5.28 1.32 8 2 C7.67 2.99 7.34 3.98 7 5 C4.11788698 5.96070434 2.30149956 6.10581883 -0.6875 6.0625 C-1.89986328 6.04896484 -1.89986328 6.04896484 -3.13671875 6.03515625 C-4.05904297 6.01775391 -4.05904297 6.01775391 -5 6 C-2.94766315 3.7522025 -1.99332739 2.9977758 1 2 C0.67 1.34 0.34 0.68 0 0 Z " fill="#EE942D" transform="translate(156,163)"/>
<path d="M0 0 C0.99 0 1.98 0 3 0 C5.07639763 2.87501211 6.3543999 5.51375944 7 9 C7.66 9 8.32 9 9 9 C9 9.66 9 10.32 9 11 C9.99 11 10.98 11 12 11 C11.67 11.66 11.34 12.32 11 13 C10.01 13 9.02 13 8 13 C8 12.34 8 11.68 8 11 C7.34 11 6.68 11 6 11 C4.4921875 9.1015625 4.4921875 9.1015625 2.875 6.625 C2.33617187 5.81289063 1.79734375 5.00078125 1.2421875 4.1640625 C0 2 0 2 0 0 Z " fill="#467FA7" transform="translate(167,316)"/>
<path d="M0 0 C2.125 0.375 2.125 0.375 3.9375 2.75 C5.125 5.375 5.125 5.375 5.125 7.375 C3.805 7.705 2.485 8.035 1.125 8.375 C1.455 6.725 1.785 5.075 2.125 3.375 C-4.805 2.88 -4.805 2.88 -11.875 2.375 C-11.875 2.045 -11.875 1.715 -11.875 1.375 C-9.65118807 1.10368525 -7.42764812 0.84807657 -5.19921875 0.6171875 C-3.46337617 0.43630979 -1.73058171 0.22572805 0 0 Z " fill="#AAA5A6" transform="translate(241.875,225.625)"/>
<path d="M0 0 C0.66 0.33 1.32 0.66 2 1 C-2.75 5.875 -2.75 5.875 -5 7 C-5 7.66 -5 8.32 -5 9 C-3.35 9.33 -1.7 9.66 0 10 C0 10.33 0 10.66 0 11 C-2.31 11 -4.62 11 -7 11 C-7.8125 9.3125 -7.8125 9.3125 -8 7 C-5.53973429 4.12969001 -3.14510786 2.09673857 0 0 Z " fill="#2B7362" transform="translate(291,312)"/>
<path d="M0 0 C0.99 0.66 1.98 1.32 3 2 C2.57664615 8.49142565 0.08900201 13.33492989 -3 19 C-3.33 19 -3.66 19 -4 19 C-4.5260319 14.66023684 -3.15404048 12.47390289 -0.890625 8.84765625 C0.52060056 5.91998217 0.25901283 3.1729072 0 0 Z " fill="#2A7157" transform="translate(244,301)"/>
<path d="M0 0 C1.23556641 0.01740234 1.23556641 0.01740234 2.49609375 0.03515625 C3.32238281 0.04417969 4.14867187 0.05320312 5 0.0625 C5.63808594 0.07410156 6.27617187 0.08570313 6.93359375 0.09765625 C7.26359375 0.75765625 7.59359375 1.41765625 7.93359375 2.09765625 C6.28359375 2.09765625 4.63359375 2.09765625 2.93359375 2.09765625 C2.93359375 3.08765625 2.93359375 4.07765625 2.93359375 5.09765625 C3.59359375 5.42765625 4.25359375 5.75765625 4.93359375 6.09765625 C1.69150808 5.7471605 0.31831671 5.53544444 -1.87890625 3.03515625 C-2.46671875 2.07609375 -2.46671875 2.07609375 -3.06640625 1.09765625 C-2.06640625 0.09765625 -2.06640625 0.09765625 0 0 Z " fill="#2B87BA" transform="translate(239.06640625,291.90234375)"/>
<path d="M0 0 C0.89203125 0.00902344 1.7840625 0.01804688 2.703125 0.02734375 C3.37859375 0.03894531 4.0540625 0.05054688 4.75 0.0625 C4.75 2.7025 4.75 5.3425 4.75 8.0625 C4.42 8.0625 4.09 8.0625 3.75 8.0625 C3.75 6.0825 3.75 4.1025 3.75 2.0625 C-2.685 2.5575 -2.685 2.5575 -9.25 3.0625 C-9.25 2.4025 -9.25 1.7425 -9.25 1.0625 C-6.09493858 0.12630187 -3.28413498 -0.0432123 0 0 Z " fill="#73995B" transform="translate(344.25,180.9375)"/>
<path d="M0 0 C0.33 1.32 0.66 2.64 1 4 C0.34 4 -0.32 4 -1 4 C-1 6.97 -1 9.94 -1 13 C2.3 13.33 5.6 13.66 9 14 C9 14.33 9 14.66 9 15 C5.04 15 1.08 15 -3 15 C-2.25 3.375 -2.25 3.375 0 0 Z " fill="#E0C6A9" transform="translate(173,145)"/>
<path d="M0 0 C5.99932374 1.8331267 11.44920563 4.07321751 17 7 C13.2231503 8.2589499 11.68234419 7.53651347 7.9375 6.3125 C6.87402344 5.97863281 5.81054688 5.64476562 4.71484375 5.30078125 C2 4 2 4 0.62890625 1.85546875 C0.42136719 1.24316406 0.21382813 0.63085938 0 0 Z " fill="#427599" transform="translate(263,297)"/>
<path d="M0 0 C0 0.33 0 0.66 0 1 C-6.33393082 1.34548714 -11.10261508 0.29342747 -17 -2 C-17 -2.33 -17 -2.66 -17 -3 C-10.74456802 -5.02878875 -5.76528535 -2.39023396 0 0 Z " fill="#ACA9A9" transform="translate(330,315)"/>
<path d="M0 0 C0.33 0.66 0.66 1.32 1 2 C-0.8130666 6.63339243 -2.94775971 9.1524798 -7 12 C-7.66 11.34 -8.32 10.68 -9 10 C-6.03 6.7 -3.06 3.4 0 0 Z " fill="#618847" transform="translate(302,243)"/>
<path d="M0 0 C2.625 0.375 2.625 0.375 5 1 C4.67 1.66 4.34 2.32 4 3 C1.4375 3.625 1.4375 3.625 -1 4 C-1.33 5.32 -1.66 6.64 -2 8 C-3.98 8.33 -5.96 8.66 -8 9 C-7.04270084 7.87411986 -6.08412105 6.7493285 -5.125 5.625 C-4.59132813 4.99851563 -4.05765625 4.37203125 -3.5078125 3.7265625 C-2.38567993 2.44163349 -1.20628025 1.20628025 0 0 Z " fill="#7CA461" transform="translate(289,205)"/>
<path d="M0 0 C-0.7734375 0.37125 -0.7734375 0.37125 -1.5625 0.75 C-5.8454728 2.94639631 -9.99307481 5.32871654 -14 8 C-14.66 7.34 -15.32 6.68 -16 6 C-14.61769577 3.23539154 -13.08867771 3.00879139 -10.25 1.875 C-9.38890625 1.52179688 -8.5278125 1.16859375 -7.640625 0.8046875 C-4.94136502 -0.01786806 -2.80298055 -0.15123996 0 0 Z " fill="#DA9552" transform="translate(181,164)"/>
<path d="M0 0 C2.97 0 5.94 0 9 0 C9.66 1.32 10.32 2.64 11 4 C5.06 3.01 5.06 3.01 -1 2 C-0.67 1.34 -0.34 0.68 0 0 Z " fill="#4D86AD" transform="translate(225,357)"/>
<path d="M0 0 C0.99 0.33 1.98 0.66 3 1 C1.625 3 1.625 3 0 5 C-0.66 5 -1.32 5 -2 5 C-2 5.66 -2 6.32 -2 7 C-2.66 7 -3.32 7 -4 7 C-4 6.01 -4 5.02 -4 4 C-6.64 4 -9.28 4 -12 4 C-12 3.67 -12 3.34 -12 3 C-11.38511719 2.95101563 -10.77023437 2.90203125 -10.13671875 2.8515625 C-9.32847656 2.77679688 -8.52023437 2.70203125 -7.6875 2.625 C-6.88699219 2.55539062 -6.08648437 2.48578125 -5.26171875 2.4140625 C-2.72775559 2.10435574 -2.72775559 2.10435574 0 0 Z " fill="#4A745A" transform="translate(319,329)"/>
<path d="M0 0 C1.125 3.75 1.125 3.75 0 6 C1.32 5.67 2.64 5.34 4 5 C4.33 6.65 4.66 8.3 5 10 C3.34385343 10.38218767 1.67542976 10.71395102 0 11 C-1.89885096 9.10114904 -1.12367506 6.42752097 -1.1328125 3.91015625 C-1 2 -1 2 0 0 Z " fill="#C6C5C6" transform="translate(163,276)"/>
<path d="M0 0 C2.08351615 3.58727128 2.80141379 7.20694042 3.625 11.25 C3.88539063 12.51328125 4.14578125 13.7765625 4.4140625 15.078125 C4.60742188 16.04234375 4.80078125 17.0065625 5 18 C4.34 17.67 3.68 17.34 3 17 C3 15.35 3 13.7 3 12 C2.34 12 1.68 12 1 12 C0.03929566 9.11788698 -0.10581883 7.30149956 -0.0625 4.3125 C-0.05347656 3.50425781 -0.04445312 2.69601562 -0.03515625 1.86328125 C-0.02355469 1.24839844 -0.01195312 0.63351562 0 0 Z " fill="#2F869F" transform="translate(199,320)"/>
<path d="M0 0 C0.33 0 0.66 0 1 0 C1.33 4.95 1.66 9.9 2 15 C1.01 15 0.02 15 -1 15 C-0.67 10.05 -0.34 5.1 0 0 Z " fill="#648E42" transform="translate(291,224)"/>
<path d="M0 0 C1.32 0.33 2.64 0.66 4 1 C3.67 1.66 3.34 2.32 3 3 C2.34 3 1.68 3 1 3 C-0.01382963 6.6208201 -0.49897691 10.27811418 -1 14 C-1.33 14 -1.66 14 -2 14 C-2.05410687 12.22950311 -2.09284119 10.45853151 -2.125 8.6875 C-2.14820313 7.70136719 -2.17140625 6.71523437 -2.1953125 5.69921875 C-2 3 -2 3 0 0 Z " fill="#71A452" transform="translate(292,218)"/>
<path d="M0 0 C0 3.58912412 -0.66436554 4.10857029 -3 6.6875 C-3.556875 7.31011719 -4.11375 7.93273437 -4.6875 8.57421875 C-5.120625 9.04472656 -5.55375 9.51523438 -6 10 C-7.078125 6.265625 -7.078125 6.265625 -6.375 3.875 C-4.58752966 1.43754045 -2.8367466 0.89581472 0 0 Z " fill="#618A4C" transform="translate(309,222)"/>
<path d="M0 0 C0.66 0 1.32 0 2 0 C1.49477778 4.37859255 -1.17827222 6.81651224 -4 10 C-4.66 9.01 -5.32 8.02 -6 7 C-5.04882866 5.8274869 -4.08882991 4.66212985 -3.125 3.5 C-2.59132813 2.8503125 -2.05765625 2.200625 -1.5078125 1.53125 C-0.76144531 0.77328125 -0.76144531 0.77328125 0 0 Z " fill="#669246" transform="translate(315,212)"/>
<path d="M0 0 C0.33 0 0.66 0 1 0 C1 2.64 1 5.28 1 8 C1.66 7.67 2.32 7.34 3 7 C4.99960012 6.960008 7.00047242 6.95653201 9 7 C9.33 7.99 9.66 8.98 10 10 C6.7 9.67 3.4 9.34 0 9 C0 6.03 0 3.06 0 0 Z " fill="#FEF6E9" transform="translate(172,149)"/>
<path d="M0 0 C0.66 0 1.32 0 2 0 C1.01 3.63 0.02 7.26 -1 11 C-1.66 11 -2.32 11 -3 11 C-4.35439668 8.29120665 -4.06501451 5.99066732 -4 3 C-3.01 4.485 -3.01 4.485 -2 6 C-1.34 4.02 -0.68 2.04 0 0 Z " fill="#CAC5C6" transform="translate(157,270)"/>
<path d="M0 0 C0.99 0 1.98 0 3 0 C3.3648363 4.25642352 2.47460354 6.53555505 0 10 C-0.33 10 -0.66 10 -1 10 C-1.125 2.25 -1.125 2.25 0 0 Z " fill="#77A25A" transform="translate(337,225)"/>
<path d="M0 0 C1.46726798 3.81489674 0.43336419 6.29011622 -1 10 C-2.32 10 -3.64 10 -5 10 C-3.84414715 6.08788267 -2.64465038 3.1254959 0 0 Z " fill="#69964E" transform="translate(324,212)"/>
<path d="M0 0 C1.65 0 3.3 0 5 0 C4.64766839 5.4611399 4.64766839 5.4611399 4 8 C1.9375 9.5 1.9375 9.5 0 10 C0.66 7.69 1.32 5.38 2 3 C1.01 3.495 1.01 3.495 0 4 C0 2.68 0 1.36 0 0 Z " fill="#5E8245" transform="translate(329,193)"/>
<path d="M0 0 C0.99 0 1.98 0 3 0 C2.60196439 2.88575819 2.20990931 3.82189513 -0.0625 5.75 C-0.701875 6.1625 -1.34125 6.575 -2 7 C-2.66 6.67 -3.32 6.34 -4 6 C-3.67 5.01 -3.34 4.02 -3 3 C-2.34 3 -1.68 3 -1 3 C-0.67 2.01 -0.34 1.02 0 0 Z " fill="#7EAA65" transform="translate(292,254)"/>
<path d="M0 0 C0.66 0.33 1.32 0.66 2 1 C1.01 2.98 0.02 4.96 -1 7 C-0.34 7.33 0.32 7.66 1 8 C0.01 8 -0.98 8 -2 8 C-2 8.66 -2 9.32 -2 10 C-2.99 9.67 -3.98 9.34 -5 9 C-3.7508258 5.54074837 -2.32472205 2.85306797 0 0 Z " fill="#8BA373" transform="translate(312,230)"/>
<path d="M0 0 C0.99 0 1.98 0 3 0 C3 0.66 3 1.32 3 2 C2.34 2 1.68 2 1 2 C1.061875 2.763125 1.12375 3.52625 1.1875 4.3125 C1 7 1 7 -0.5 8.8125 C-0.995 9.204375 -1.49 9.59625 -2 10 C-3.03023161 6.72199032 -3.17153978 5.38596452 -1.75 2.1875 C-1.1725 1.465625 -0.595 0.74375 0 0 Z " fill="#CF965D" transform="translate(142,163)"/>
<path d="M0 0 C0 0.99 0 1.98 0 3 C-0.66 3 -1.32 3 -2 3 C-2 3.66 -2 4.32 -2 5 C-5.34373475 4.44271087 -8.03312999 3.64826111 -11 2 C-8.70961976 0.85480988 -7.46931463 0.92648088 -4.9375 1 C-3.638125 1 -2.33875 1 -1 1 C-0.67 0.67 -0.34 0.34 0 0 Z " fill="#3F6F73" transform="translate(217,350)"/>
<path d="M0 0 C2.875 -0.125 2.875 -0.125 6 0 C6.66 0.66 7.32 1.32 8 2 C7.67 2.33 7.34 2.66 7 3 C7.66 3.66 8.32 4.32 9 5 C5.85262818 4.30058404 2.97411124 3.23921302 0 2 C0 1.34 0 0.68 0 0 Z " fill="#C8C3C2" transform="translate(269,290)"/>
<path d="M0 0 C0.33 0.66 0.66 1.32 1 2 C-2.13498292 3.85776765 -4.37471432 4.20140476 -8 4 C-8 3.34 -8 2.68 -8 2 C-4.77208445 -0.1519437 -3.71599191 -0.20086443 0 0 Z " fill="#68994C" transform="translate(314,258)"/>
<path d="M0 0 C0.66 0.33 1.32 0.66 2 1 C2 1.99 2 2.98 2 4 C3.32 3.34 4.64 2.68 6 2 C4.71937515 3.7074998 3.38232443 5.37373596 2 7 C1.34 7 0.68 7 0 7 C0 6.34 0 5.68 0 5 C-0.66 5 -1.32 5 -2 5 C-1.34 3.35 -0.68 1.7 0 0 Z " fill="#629243" transform="translate(287,240)"/>
<path d="M0 0 C0.65234375 1.765625 0.65234375 1.765625 1 4 C0.00390625 5.921875 0.00390625 5.921875 -1.4375 7.75 C-2.14712891 8.67039063 -2.14712891 8.67039063 -2.87109375 9.609375 C-3.24363281 10.06828125 -3.61617188 10.5271875 -4 11 C-5 8 -5 8 -4.00390625 5.95703125 C-3.52824219 5.24933594 -3.05257813 4.54164063 -2.5625 3.8125 C-2.08941406 3.09707031 -1.61632812 2.38164062 -1.12890625 1.64453125 C-0.75636719 1.10183594 -0.38382812 0.55914062 0 0 Z " fill="#829F69" transform="translate(328,195)"/>
<path d="M0 0 C2 0 2 0 3.875 1.75 C4.57625 2.4925 5.2775 3.235 6 4 C6.7425 4.7425 7.485 5.485 8.25 6.25 C8.8275 6.8275 9.405 7.405 10 8 C9.67 8.66 9.34 9.32 9 10 C7.68113228 8.90344712 6.37009943 7.79746577 5.0625 6.6875 C4.33160156 6.07261719 3.60070312 5.45773438 2.84765625 4.82421875 C1 3 1 3 0 0 Z " fill="#D6CDC7" transform="translate(169,169)"/>
<path d="M0 0 C0.99 0.33 1.98 0.66 3 1 C2.34 1 1.68 1 1 1 C0.773125 1.78375 0.54625 2.5675 0.3125 3.375 C-1 6 -1 6 -3.625 7.3125 C-4.40875 7.539375 -5.1925 7.76625 -6 8 C-4.55746343 4.63408134 -2.66735273 2.48952921 0 0 Z " fill="#B97D3A" transform="translate(149,156)"/>
<path d="M0 0 C-0.33 2.97 -0.66 5.94 -1 9 C-1.33 9 -1.66 9 -2 9 C-2 7.35 -2 5.7 -2 4 C-3.32 4 -4.64 4 -6 4 C-6 3.34 -6 2.68 -6 2 C-1.125 0 -1.125 0 0 0 Z " fill="#CB965E" transform="translate(171,150)"/>
<path d="M0 0 C0.33 0 0.66 0 1 0 C1.03738281 0.62648438 1.07476562 1.25296875 1.11328125 1.8984375 C1.17902344 2.71570313 1.24476563 3.53296875 1.3125 4.375 C1.37050781 5.18710937 1.42851562 5.99921875 1.48828125 6.8359375 C1.82990528 9.37921338 1.82990528 9.37921338 5 11 C4.67 11.99 4.34 12.98 4 14 C3.01 13.67 2.02 13.34 1 13 C-0.00496852 9.98509443 -0.10335303 7.95818308 -0.0625 4.8125 C-0.05347656 3.91144531 -0.04445312 3.01039063 -0.03515625 2.08203125 C-0.02355469 1.39496094 -0.01195312 0.70789063 0 0 Z " fill="#3177A3" transform="translate(163,300)"/>
<path d="M0 0 C1.65 1.65 3.3 3.3 5 5 C2.625 5.625 2.625 5.625 0 6 C-0.66 5.34 -1.32 4.68 -2 4 C-2 3.34 -2 2.68 -2 2 C-1.34 2 -0.68 2 0 2 C0 1.34 0 0.68 0 0 Z " fill="#C1C2C1" transform="translate(321,301)"/>
<path d="M0 0 C0.99 0 1.98 0 3 0 C3.99 2.64 4.98 5.28 6 8 C3.5625 7.375 3.5625 7.375 1 6 C0.1875 2.875 0.1875 2.875 0 0 Z " fill="#337D79" transform="translate(232,288)"/>
<path d="M0 0 C-3.6441774 2.4294516 -5.71241272 2.16179575 -10 2 C-10 1.34 -10 0.68 -10 0 C-5.91847062 -2.09907226 -4.08152938 -2.09907226 0 0 Z " fill="#7AA460" transform="translate(328,188)"/>
<path d="M0 0 C0.85851562 0.55300781 0.85851562 0.55300781 1.734375 1.1171875 C0.0328125 1.5503125 0.0328125 1.5503125 -1.703125 1.9921875 C-2.87875 2.3634375 -4.054375 2.7346875 -5.265625 3.1171875 C-5.595625 3.7771875 -5.925625 4.4371875 -6.265625 5.1171875 C-7.585625 4.4571875 -8.905625 3.7971875 -10.265625 3.1171875 C-9.02678181 2.38951747 -7.77394159 1.68563935 -6.515625 0.9921875 C-5.81953125 0.59773437 -5.1234375 0.20328125 -4.40625 -0.203125 C-2.265625 -0.8828125 -2.265625 -0.8828125 0 0 Z " fill="#E88B38" transform="translate(157.265625,164.8828125)"/>
<path d="M0 0 C0.556875 0.28875 1.11375 0.5775 1.6875 0.875 C4.00021036 2.05892519 4.00021036 2.05892519 6.5625 2.875 C9.33425106 4.15426972 10.38646842 5.45231855 12 8 C11.505 7.731875 11.01 7.46375 10.5 7.1875 C7.0763054 5.56124507 3.55867715 4.30484829 0 3 C0 2.01 0 1.02 0 0 Z " fill="#307F93" transform="translate(184,301)"/>
<path d="M0 0 C0.66 0.33 1.32 0.66 2 1 C1.67 1.33 1.34 1.66 1 2 C0.76807135 3.51469448 0.58784762 5.03754562 0.4375 6.5625 C0.35371094 7.38878906 0.26992187 8.21507812 0.18359375 9.06640625 C0.12300781 9.70449219 0.06242188 10.34257812 0 11 C-1.96602468 8.05096298 -2.73897585 6.48032201 -3 3 C-1.5625 1.1875 -1.5625 1.1875 0 0 Z " fill="#5F85A1" transform="translate(163,298)"/>
<path d="M0 0 C5.75 1.625 5.75 1.625 8 5 C7.34 5 6.68 5 6 5 C6 5.66 6 6.32 6 7 C5.01 7 4.02 7 3 7 C3.33 5.68 3.66 4.36 4 3 C2.68 2.67 1.36 2.34 0 2 C0 1.34 0 0.68 0 0 Z " fill="#DADAD9" transform="translate(224,128)"/>
<path d="M0 0 C-0.66 0 -1.32 0 -2 0 C-2 0.66 -2 1.32 -2 2 C-4.97 2 -7.94 2 -11 2 C-10.67 1.34 -10.34 0.68 -10 0 C-6.35526801 -0.89093449 -3.57257469 -1.23666047 0 0 Z " fill="#3179A0" transform="translate(265,359)"/>
<path d="M0 0 C4.39158329 1.4638611 4.87947433 3.97831338 7 8 C3.2047869 6.50902342 1.38957269 4.24299151 -1 1 C-0.67 0.67 -0.34 0.34 0 0 Z " fill="#3B6E8A" transform="translate(177,328)"/>
<path d="M0 0 C1.65 0.33 3.3 0.66 5 1 C5 1.99 5 2.98 5 4 C3.35 4 1.7 4 0 4 C0 2.68 0 1.36 0 0 Z " fill="#347236" transform="translate(286,318)"/>
<path d="M0 0 C0 0.66 0 1.32 0 2 C1.98 2 3.96 2 6 2 C6 2.33 6 2.66 6 3 C0.72 2.67 -4.56 2.34 -10 2 C-10 1.67 -10 1.34 -10 1 C-3.375 0 -3.375 0 0 0 Z " fill="#C0BEBB" transform="translate(222,276)"/>
<path d="M0 0 C1.32 0.66 2.64 1.32 4 2 C1.03 4.475 1.03 4.475 -2 7 C-2.125 4.625 -2.125 4.625 -2 2 C-1.34 1.34 -0.68 0.68 0 0 Z " fill="#5F9145" transform="translate(322,249)"/>
<path d="M0 0 C0.8125 1.6875 0.8125 1.6875 1 4 C-1.4375 6.75 -1.4375 6.75 -4 9 C-4 5.00095031 -2.27413033 3.19799578 0 0 Z " fill="#CECACB" transform="translate(169,200)"/>
<path d="M0 0 C1.69141656 0.08963062 3.37959602 0.24577676 5.0625 0.4375 C6.44115234 0.59025391 6.44115234 0.59025391 7.84765625 0.74609375 C8.55792969 0.82988281 9.26820313 0.91367187 10 1 C10 1.33 10 1.66 10 2 C8.54364629 2.22174933 7.08477044 2.42698698 5.625 2.625 C4.81289062 2.74101562 4.00078125 2.85703125 3.1640625 2.9765625 C2.44992188 2.98429687 1.73578125 2.99203125 1 3 C0.34 2.34 -0.32 1.68 -1 1 C-0.67 0.67 -0.34 0.34 0 0 Z " fill="#2F73A3" transform="translate(220,355)"/>
<path d="M0 0 C0.6875 1.8125 0.6875 1.8125 1 4 C-0.3125 5.5 -0.3125 5.5 -2 7 C-3.17574711 9.09989652 -3.17574711 9.09989652 -4 11 C-5 9 -5 9 -4.25 6.625 C-3.0606167 4.12729507 -1.74223168 2.13819343 0 0 Z " fill="#2B7353" transform="translate(223,336)"/>
<path d="M0 0 C3.34249629 0.59687434 5.46436342 1.73603877 8 4 C8 4.66 8 5.32 8 6 C6.68 5.67 5.36 5.34 4 5 C4 4.34 4 3.68 4 3 C2.68 3 1.36 3 0 3 C0 2.01 0 1.02 0 0 Z " fill="#3088B4" transform="translate(188,305)"/>
<path d="M0 0 C0.99 0 1.98 0 3 0 C2.38722388 2.96175123 1.74627478 4.38058783 0 7 C-0.66 7 -1.32 7 -2 7 C-2 5.68 -2 4.36 -2 3 C-1.34 3 -0.68 3 0 3 C0 2.01 0 1.02 0 0 Z " fill="#77A05A" transform="translate(329,241)"/>
<path d="M0 0 C0.33 1.32 0.66 2.64 1 4 C-1.475 5.485 -1.475 5.485 -4 7 C-4 5.68 -4 4.36 -4 3 C-3.34 3 -2.68 3 -2 3 C-2 2.34 -2 1.68 -2 1 C-1.34 0.67 -0.68 0.34 0 0 Z " fill="#EA8E39" transform="translate(147,162)"/>
<path d="M0 0 C2.7972908 2.06756277 3.02692273 3.14440371 3.6875 6.6875 C3.790625 7.780625 3.89375 8.87375 4 10 C3.67 9.34 3.34 8.68 3 8 C2.34 8 1.68 8 1 8 C0.67 5.36 0.34 2.72 0 0 Z " fill="#308195" transform="translate(204,338)"/>
<path d="M0 0 C0.66 0.66 1.32 1.32 2 2 C0.25 3.5625 0.25 3.5625 -2 5 C-4.25 4.6875 -4.25 4.6875 -6 4 C-4.60804085 1.2160817 -2.84424221 1.02101003 0 0 Z " fill="#42633D" transform="translate(304,342)"/>
<path d="M0 0 C5.75 1.875 5.75 1.875 8 3 C8 3.66 8 4.32 8 5 C4.5625 4.1875 4.5625 4.1875 1 3 C0.67 2.01 0.34 1.02 0 0 Z " fill="#3A6F92" transform="translate(254,293)"/>
<path d="M0 0 C0.66 1.32 1.32 2.64 2 4 C-0.475 5.485 -0.475 5.485 -3 7 C-3 3 -3 3 -1.5 1.25 C-1.005 0.8375 -0.51 0.425 0 0 Z " fill="#81AC68" transform="translate(318,253)"/>
<path d="M0 0 C0.66 0.33 1.32 0.66 2 1 C0.35 2.98 -1.3 4.96 -3 7 C-3.66 6.67 -4.32 6.34 -5 6 C-3.63016497 2.83884224 -3.0109362 2.0072908 0 0 Z " fill="#678F50" transform="translate(283,213)"/>
<path d="M0 0 C0.33 0.99 0.66 1.98 1 3 C1.66 3.33 2.32 3.66 3 4 C2.67 5.65 2.34 7.3 2 9 C1.01 8.67 0.02 8.34 -1 8 C-0.67 5.36 -0.34 2.72 0 0 Z " fill="#7DAA55" transform="translate(344,203)"/>
<path d="M0 0 C3.87132028 0.57352893 6.08172796 2.48704352 9 5 C8.67 5.99 8.34 6.98 8 8 C6.66372225 6.85760183 5.33104612 5.71098945 4 4.5625 C3.2575 3.92441406 2.515 3.28632813 1.75 2.62890625 C1.1725 2.09136719 0.595 1.55382812 0 1 C0 0.67 0 0.34 0 0 Z " fill="#2C724A" transform="translate(190,303)"/>
<path d="M0 0 C0.99 0.33 1.98 0.66 3 1 C-1.75 5.875 -1.75 5.875 -4 7 C-4 5.68 -4 4.36 -4 3 C-2.1875 1.1875 -2.1875 1.1875 0 0 Z " fill="#CECBCC" transform="translate(179,239)"/>
<path d="M0 0 C-0.33 1.65 -0.66 3.3 -1 5 C-2.65 4.67 -4.3 4.34 -6 4 C-2.25 0 -2.25 0 0 0 Z " fill="#BDBCBD" transform="translate(195,239)"/>
<path d="M0 0 C1 2 1 2 0.3125 4.5625 C-0.120625 5.366875 -0.55375 6.17125 -1 7 C-2.32 7.33 -3.64 7.66 -5 8 C-3.35 5.36 -1.7 2.72 0 0 Z " fill="#698750" transform="translate(318,222)"/>
<path d="M0 0 C0.99 0.33 1.98 0.66 3 1 C2.67 1.33 2.34 1.66 2 2 C2.66 2.66 3.32 3.32 4 4 C2.02 4.66 0.04 5.32 -2 6 C-1.34 4.02 -0.68 2.04 0 0 Z " fill="#C3BEBF" transform="translate(197,226)"/>
<path d="M0 0 C0.66 0.33 1.32 0.66 2 1 C1.67 3.31 1.34 5.62 1 8 C0.01 7.34 -0.98 6.68 -2 6 C-1.49396008 3.83125748 -1.00016187 2.00032373 0 0 Z " fill="#659943" transform="translate(343,211)"/>
<path d="M0 0 C0.53625 0.226875 1.0725 0.45375 1.625 0.6875 C-3.79038462 3.76442308 -3.79038462 3.76442308 -6.75 3.375 C-7.554375 3.0346875 -7.554375 3.0346875 -8.375 2.6875 C-2.95961538 -0.38942308 -2.95961538 -0.38942308 0 0 Z " fill="#F9E2BE" transform="translate(179.375,165.3125)"/>
<path d="M0 0 C2.31 0 4.62 0 7 0 C6.319375 0.61875 6.319375 0.61875 5.625 1.25 C3.94049626 3.06408095 3.00734029 4.75285627 2 7 C1.34 4.69 0.68 2.38 0 0 Z " fill="#3579A3" transform="translate(321,319)"/>
<path d="M0 0 C0.66 0.33 1.32 0.66 2 1 C0.35 2.65 -1.3 4.3 -3 6 C-3.66 5.67 -4.32 5.34 -5 5 C-3.35 3.35 -1.7 1.7 0 0 Z " fill="#2F7157" transform="translate(291,312)"/>
<path d="M0 0 C-0.33 0.99 -0.66 1.98 -1 3 C-1.66 3 -2.32 3 -3 3 C-3.33 3.99 -3.66 4.98 -4 6 C-4.99 6.33 -5.98 6.66 -7 7 C-3.86206897 0 -3.86206897 0 0 0 Z " fill="#CBCACB" transform="translate(181,250)"/>
<path d="M0 0 C1.32 0.33 2.64 0.66 4 1 C3.34 3.31 2.68 5.62 2 8 C1.67 8 1.34 8 1 8 C0.67 5.36 0.34 2.72 0 0 Z " fill="#66914C" transform="translate(339,219)"/>
</svg>
